<?xml version="1.0" encoding="UTF-8"?>
<svg xmlns="http://www.w3.org/2000/svg" xmlns:xlink="http://www.w3.org/1999/xlink" fill-opacity="1" color-rendering="auto" color-interpolation="auto" stroke="black" text-rendering="auto" stroke-linecap="square" width="647" stroke-miterlimit="10" stroke-opacity="1" shape-rendering="auto" fill="black" stroke-dasharray="none" font-weight="normal" stroke-width="1" height="286" font-family="'Dialog'" font-style="normal" stroke-linejoin="miter" font-size="12" stroke-dashoffset="0" image-rendering="auto">
  <!--Generated by ySVG-->
  <defs id="genericDefs"/>
  <g>
    <defs id="defs1">
      <clipPath clipPathUnits="userSpaceOnUse" id="clipPath1">
        <path d="M0 0 L647 0 L647 286 L0 286 L0 0 Z"/>
      </clipPath>
      <clipPath clipPathUnits="userSpaceOnUse" id="clipPath2">
        <path d="M15 61 L662 61 L662 347 L15 347 L15 61 Z"/>
      </clipPath>
    </defs>
    <g fill="white" transform="translate(-15,-61)" stroke="white">
      <rect x="15" width="647" height="286" y="61" clip-path="url(#clipPath2)" stroke="none"/>
    </g>
    <g fill="rgb(255,204,0)" transform="matrix(1,0,0,1,-15,-61)" stroke="rgb(255,204,0)">
      <ellipse rx="66" ry="21.5" clip-path="url(#clipPath2)" cx="96" cy="97.5" stroke="none"/>
    </g>
    <g stroke-miterlimit="1.45" font-family="sans-serif" transform="matrix(1,0,0,1,-15,-61)" stroke-linecap="butt">
      <text x="49.166" xml:space="preserve" y="101.6562" clip-path="url(#clipPath2)" stroke="none">WfEngine#Role</text>
      <ellipse rx="66" fill="none" ry="21.5" clip-path="url(#clipPath2)" cx="96" cy="97.5"/>
    </g>
    <g fill="rgb(255,204,0)" transform="matrix(1,0,0,1,-15,-61)" stroke="rgb(255,204,0)">
      <ellipse rx="47" ry="21.5" clip-path="url(#clipPath2)" cx="410" cy="97.5" stroke="none"/>
    </g>
    <g stroke-miterlimit="1.45" font-family="sans-serif" transform="matrix(1,0,0,1,-15,-61)" stroke-linecap="butt">
      <text x="391.1035" xml:space="preserve" y="101.6562" clip-path="url(#clipPath2)" stroke="none">Action</text>
      <ellipse rx="47" fill="none" ry="21.5" clip-path="url(#clipPath2)" cx="410" cy="97.5"/>
    </g>
    <g fill="rgb(255,204,0)" transform="matrix(1,0,0,1,-15,-61)" stroke="rgb(255,204,0)">
      <ellipse rx="47" ry="21.5" clip-path="url(#clipPath2)" cx="410" cy="256.5" stroke="none"/>
    </g>
    <g stroke-miterlimit="1.45" font-family="sans-serif" transform="matrix(1,0,0,1,-15,-61)" stroke-linecap="butt">
      <text x="388.1826" xml:space="preserve" y="260.6562" clip-path="url(#clipPath2)" stroke="none">Module</text>
      <ellipse rx="47" fill="none" ry="21.5" clip-path="url(#clipPath2)" cx="410" cy="256.5"/>
    </g>
    <g fill="white" transform="matrix(1,0,0,1,-15,-61)" stroke="white">
      <ellipse rx="60.5" ry="15" clip-path="url(#clipPath2)" cx="586.5" cy="256.5" stroke="none"/>
    </g>
    <g stroke-miterlimit="1.45" font-family="sans-serif" transform="matrix(1,0,0,1,-15,-61)" stroke-linecap="butt">
      <text x="536.9854" xml:space="preserve" y="260.6562" clip-path="url(#clipPath2)" stroke="none">moduleIdentifier</text>
      <ellipse rx="60.5" fill="none" ry="15" clip-path="url(#clipPath2)" cx="586.5" cy="256.5"/>
    </g>
    <g fill="white" transform="matrix(1,0,0,1,-15,-61)" stroke="white">
      <ellipse rx="60.5" ry="15" clip-path="url(#clipPath2)" cx="586.5" cy="316.5" stroke="none"/>
    </g>
    <g stroke-miterlimit="1.45" font-family="sans-serif" transform="matrix(1,0,0,1,-15,-61)" stroke-linecap="butt">
      <text x="534.5596" xml:space="preserve" y="320.6562" clip-path="url(#clipPath2)" stroke="none">moduleExtension</text>
      <ellipse rx="60.5" fill="none" ry="15" clip-path="url(#clipPath2)" cx="586.5" cy="316.5"/>
    </g>
    <g fill="white" transform="matrix(1,0,0,1,-15,-61)" stroke="white">
      <ellipse rx="60.5" ry="15" clip-path="url(#clipPath2)" cx="586.5" cy="97" stroke="none"/>
    </g>
    <g stroke-miterlimit="1.45" font-family="sans-serif" transform="matrix(1,0,0,1,-15,-61)" stroke-linecap="butt">
      <text x="541.002" xml:space="preserve" y="101.1562" clip-path="url(#clipPath2)" stroke="none">actionIdentifier</text>
      <ellipse rx="60.5" fill="none" ry="15" clip-path="url(#clipPath2)" cx="586.5" cy="97"/>
      <path fill="none" d="M162 97.5 L355 97.5" clip-path="url(#clipPath2)"/>
      <path d="M363 97.5 L351 92.5 L354 97.5 L351 102.5 Z" clip-path="url(#clipPath2)" stroke="none"/>
      <text x="206.8506" xml:space="preserve" y="131.6562" clip-path="url(#clipPath2)" stroke="none">grantAccessAction</text>
      <path fill="none" d="M131.7082 115.5815 L371.3563 236.932" clip-path="url(#clipPath2)"/>
      <path d="M378.4935 240.5461 L370.0465 230.6643 L370.4642 236.4803 L365.529 239.5857 Z" clip-path="url(#clipPath2)" stroke="none"/>
      <text x="152.5978" xml:space="preserve" y="193.6008" clip-path="url(#clipPath2)" stroke="none">grantAccessModule</text>
      <path fill="none" d="M410 119 L410 227" clip-path="url(#clipPath2)"/>
      <path d="M410 235 L415 223 L410 226 L405 223 Z" clip-path="url(#clipPath2)" stroke="none"/>
      <text x="360.0166" xml:space="preserve" y="181.1562" clip-path="url(#clipPath2)" stroke="none">actionMemberOf</text>
      <path fill="none" d="M457 256.5 L518 256.5" clip-path="url(#clipPath2)"/>
      <path d="M526 256.5 L514 251.5 L517 256.5 L514 261.5 Z" clip-path="url(#clipPath2)" stroke="none"/>
      <path fill="none" d="M457 256.5 L485 256.5 L485 316.5 L518 316.5" clip-path="url(#clipPath2)"/>
      <path d="M526 316.5 L514 311.5 L517 316.5 L514 321.5 Z" clip-path="url(#clipPath2)" stroke="none"/>
      <path fill="none" d="M456.9991 97.3669 L518.004 97.194" clip-path="url(#clipPath2)"/>
      <path d="M526.0039 97.1714 L513.9898 92.2054 L517.004 97.1969 L514.0181 102.2053 Z" clip-path="url(#clipPath2)" stroke="none"/>
    </g>
  </g>
</svg>
